<svg id="visual" viewBox="0 0 675 900" width="675" height="900" xmlns="http://www.w3.org/2000/svg" xmlns:xlink="http://www.w3.org/1999/xlink" version="1.1"><path d="M0 82L56.3 77.5C112.7 73 225.3 64 337.8 58C450.3 52 562.7 49 618.8 47.5L675 46L675 0L618.8 0C562.7 0 450.3 0 337.8 0C225.3 0 112.7 0 56.3 0L0 0Z" fill="#271d84"></path><path d="M0 172L56.3 175C112.7 178 225.3 184 337.8 185.5C450.3 187 562.7 184 618.8 182.5L675 181L675 44L618.8 45.5C562.7 47 450.3 50 337.8 56C225.3 62 112.7 71 56.3 75.5L0 80Z" fill="#2b1f75"></path><path d="M0 226L56.3 239.5C112.7 253 225.3 280 337.8 287.5C450.3 295 562.7 283 618.8 277L675 271L675 179L618.8 180.5C562.7 182 450.3 185 337.8 183.5C225.3 182 112.7 176 56.3 173L0 170Z" fill="#2c2066"></path><path d="M0 523L56.3 508C112.7 493 225.3 463 337.8 454C450.3 445 562.7 457 618.8 463L675 469L675 269L618.8 275C562.7 281 450.3 293 337.8 285.5C225.3 278 112.7 251 56.3 237.5L0 224Z" fill="#2c2158"></path><path d="M0 577L56.3 569.5C112.7 562 225.3 547 337.8 545.5C450.3 544 562.7 556 618.8 562L675 568L675 467L618.8 461C562.7 455 450.3 443 337.8 452C225.3 461 112.7 491 56.3 506L0 521Z" fill="#2b214a"></path><path d="M0 640L56.3 632.5C112.7 625 225.3 610 337.8 605.5C450.3 601 562.7 607 618.8 610L675 613L675 566L618.8 560C562.7 554 450.3 542 337.8 543.5C225.3 545 112.7 560 56.3 567.5L0 575Z" fill="#29223c"></path><path d="M0 802L56.3 809.5C112.7 817 225.3 832 337.8 832C450.3 832 562.7 817 618.8 809.5L675 802L675 611L618.8 608C562.7 605 450.3 599 337.8 603.5C225.3 608 112.7 623 56.3 630.5L0 638Z" fill="#26222f"></path><path d="M0 901L56.3 901C112.7 901 225.3 901 337.8 901C450.3 901 562.7 901 618.8 901L675 901L675 800L618.8 807.5C562.7 815 450.3 830 337.8 830C225.3 830 112.7 815 56.3 807.5L0 800Z" fill="#222222"></path></svg>